<svg xmlns="http://www.w3.org/2000/svg" viewBox="0 0 96 96"><rect width="96" height="96" rx="24" fill="#FFF8D9"/><path d="M48 17c-16 0-27 11-27 25 0 11 7 17 14 22 3 2 4 5 4 8h18c0-3 1-6 4-8 7-5 14-11 14-22 0-14-11-25-27-25Z" fill="#FFD85C" stroke="#725A27" stroke-width="4"/><path d="M39 80h18M48 28v10M29 20l-7-7M67 20l7-7M18 40H8M78 40h10" stroke="#E58C3A" stroke-width="5" stroke-linecap="round"/><path d="m39 48 7 6 12-15" fill="none" stroke="#7658B8" stroke-width="5" stroke-linecap="round"/></svg>
